<svg preserveAspectRatio="none" width="100%" height="100%" overflow="visible" style="display: block;" viewBox="0 0 32 32" fill="none" xmlns="http://www.w3.org/2000/svg">
<g id="mdi:linkedin">
<path id="Vector" d="M26.8889 2C27.714 2 28.5053 2.32778 29.0888 2.91122C29.6722 3.49467 30 4.28599 30 5.11111V26.8889C30 27.714 29.6722 28.5053 29.0888 29.0888C28.5053 29.6722 27.714 30 26.8889 30H5.11111C4.28599 30 3.49467 29.6722 2.91122 29.0888C2.32778 28.5053 2 27.714 2 26.8889V5.11111C2 4.28599 2.32778 3.49467 2.91122 2.91122C3.49467 2.32778 4.28599 2 5.11111 2H26.8889ZM26.1111 26.1111V17.8667C26.1111 16.5217 25.5768 15.2319 24.6258 14.2808C23.6748 13.3298 22.3849 12.7956 21.04 12.7956C19.7178 12.7956 18.1778 13.6044 17.4311 14.8178V13.0911H13.0911V26.1111H17.4311V18.4422C17.4311 17.2444 18.3956 16.2644 19.5933 16.2644C20.1709 16.2644 20.7248 16.4939 21.1333 16.9023C21.5417 17.3107 21.7711 17.8646 21.7711 18.4422V26.1111H26.1111ZM8.03556 10.6489C8.72865 10.6489 9.39337 10.3736 9.88346 9.88346C10.3736 9.39337 10.6489 8.72865 10.6489 8.03556C10.6489 6.58889 9.48222 5.40667 8.03556 5.40667C7.33833 5.40667 6.66966 5.68364 6.17665 6.17665C5.68364 6.66966 5.40667 7.33833 5.40667 8.03556C5.40667 9.48222 6.58889 10.6489 8.03556 10.6489ZM10.1978 26.1111V13.0911H5.88889V26.1111H10.1978Z" fill="var(--fill-0, white)"/>
</g>
</svg>
