<svg preserveAspectRatio="none" width="100%" height="100%" overflow="visible" style="display: block;" viewBox="0 0 48 48" fill="none" xmlns="http://www.w3.org/2000/svg">
<g id="streamline-logos:imdb-logo-solid">
<path id="Vector" fill-rule="evenodd" clip-rule="evenodd" d="M2 32V16H6V32H2ZM8 32V16H13L15 24L17 16H22V32H18V25L16 32H14L12 25V32H8ZM24 32H30C31.0609 32 32.0783 31.5786 32.8284 30.8284C33.5786 30.0783 34 29.0609 34 28V20C34 18.9391 33.5786 17.9217 32.8284 17.1716C32.0783 16.4214 31.0609 16 30 16H24V32ZM28 19H29C29.2652 19 29.5196 19.1054 29.7071 19.2929C29.8946 19.4804 30 19.7348 30 20V28C30 28.2652 29.8946 28.5196 29.7071 28.7071C29.5196 28.8946 29.2652 29 29 29H28V19ZM36 16H40V20.902C40.668 20.418 41.656 20 43 20C45.4 20 46 21.334 46 22V30C46 30.666 45.4 32 43 32C41.656 32 40.668 31.582 40 31.098V32H36V16ZM42 28V24C42 23.7348 41.8946 23.4804 41.7071 23.2929C41.5196 23.1054 41.2652 23 41 23C40.7348 23 40.4804 23.1054 40.2929 23.2929C40.1054 23.4804 40 23.7348 40 24V28C40 28.2652 40.1054 28.5196 40.2929 28.7071C40.4804 28.8946 40.7348 29 41 29C41.2652 29 41.5196 28.8946 41.7071 28.7071C41.8946 28.5196 42 28.2652 42 28Z" fill="var(--fill-0, white)"/>
</g>
</svg>
