<svg preserveAspectRatio="none" width="100%" height="100%" overflow="visible" style="display: block;" viewBox="0 0 48 48" fill="none" xmlns="http://www.w3.org/2000/svg">
<g id="lets-icons:stop-fill">
<path id="Vector" d="M18 10H14C12.8954 10 12 10.8954 12 12V36C12 37.1046 12.8954 38 14 38H18C19.1046 38 20 37.1046 20 36V12C20 10.8954 19.1046 10 18 10Z" fill="var(--fill-0, white)"/>
<path id="Vector_2" d="M34 10H30C28.8954 10 28 10.8954 28 12V36C28 37.1046 28.8954 38 30 38H34C35.1046 38 36 37.1046 36 36V12C36 10.8954 35.1046 10 34 10Z" fill="var(--fill-0, white)"/>
</g>
</svg>
