<svg preserveAspectRatio="none" width="100%" height="100%" overflow="visible" style="display: block;" viewBox="0 0 1381.53 269.506" fill="none" xmlns="http://www.w3.org/2000/svg">
<g id="Group">
<path id="Vector" fill-rule="evenodd" clip-rule="evenodd" d="M572.269 53.65V79.8284H439.411V117.929H516.555V144.538H439.3V186.841H573.852V216H401.483V53.65H572.269Z" fill="var(--fill-0, white)" fill-opacity="0.12"/>
<path id="Vector_2" fill-rule="evenodd" clip-rule="evenodd" d="M313.257 216.179H276.434V53.6856H313.257V216.179Z" fill="var(--fill-0, white)" fill-opacity="0.12"/>
<path id="Vector_3" fill-rule="evenodd" clip-rule="evenodd" d="M1016.03 0C938.807 1.32867 877.755 59.6108 877.681 134.807C877.644 210.074 938.844 269.541 1016.28 269.505C1093.54 269.434 1154.59 210.11 1154.63 134.986C1154.66 59.7185 1093.46 1.22094 1016.03 0.0359101V0ZM1053.99 204.939C1052.81 204.939 1051.41 203.718 1050.45 202.784C1035.28 187.738 1020.19 172.62 1004.94 157.681C1003.58 156.353 1001.3 155.347 999.381 155.275C992.495 154.988 985.573 155.168 978.171 155.168C978.098 156.855 977.95 158.364 977.95 159.872C977.95 173.518 977.84 187.164 978.024 200.809C978.061 204.221 977.067 205.262 973.532 205.19C964.436 204.939 955.304 205.119 945.877 205.119V72.2512C947.313 72.1793 948.86 71.9998 950.407 71.9998C982.811 71.9998 1015.18 72.1793 1047.58 71.928C1065.44 71.7843 1079.73 77.7454 1088.82 93.1508C1105.03 120.586 1084.52 155.06 1052.04 155.096C1050.31 155.096 1048.58 155.096 1046.15 156.029C1062.35 172.081 1078.55 188.133 1095.56 204.975C1081.02 204.975 1067.54 205.047 1054.03 204.867L1053.99 204.939Z" fill="var(--fill-0, white)" fill-opacity="0.12"/>
<path id="Vector_4" fill-rule="evenodd" clip-rule="evenodd" d="M850.025 119.402C847.374 99.1848 838.499 82.4507 821.229 70.3849C803.186 57.8163 782.528 53.7944 761.024 53.5071C731.123 53.1121 701.223 53.3994 671.323 53.3994H648.05V216.144C649.266 216.216 650.149 216.288 651.033 216.288C683.732 216.288 716.431 216.611 749.13 216.144C762.128 215.964 775.237 214.744 788.089 212.697C813.828 208.603 832.055 194.275 843.102 171.292C851.056 154.738 852.382 137.25 850.062 119.366L850.025 119.402ZM809.925 151.757C805.322 169.066 793.133 178.869 775.827 182.568C765.59 184.759 755.021 186.303 744.564 186.626C725.158 187.272 705.715 186.805 685.831 186.805V81.1938C687.304 81.122 688.593 81.0143 689.881 81.0143C712.564 81.0143 735.247 80.8347 757.931 81.0861C768.536 81.1938 778.883 82.9175 788.494 87.8372C801.271 94.4088 808.157 105.146 810.808 118.54C813.018 129.601 812.797 140.769 809.925 151.757Z" fill="var(--fill-0, white)" fill-opacity="0.12"/>
<path id="Vector_5" fill-rule="evenodd" clip-rule="evenodd" d="M201.386 117.966C197.961 93.9421 185.441 76.0229 163.347 64.7113C147.882 56.7751 131.053 53.6869 113.82 53.5432C77.2917 53.22 40.8 53.4355 4.27148 53.4355H0V216.324H5.15523C36.2339 216.324 67.3126 216.683 98.3545 216.18C112.237 215.965 126.23 214.851 139.928 212.697C163.495 208.998 181.096 196.286 192.438 175.745C202.49 157.575 204.221 138.076 201.349 117.93L201.386 117.966ZM161.801 149.639C158.266 168.096 145.635 178.798 127.371 182.532C115.404 184.974 103.068 186.303 90.8426 186.842C74.2354 187.56 57.5913 186.985 40.9473 187.057C38.4065 187.057 36.8967 186.842 36.8967 183.646C37.0072 150.177 36.9704 116.745 36.9704 83.2768C36.9704 82.7381 37.1177 82.1636 37.3018 81.0144H48.2014C68.5278 81.0144 88.8541 80.6194 109.144 81.194C117.503 81.4454 126.119 82.8818 134.036 85.4673C153.184 91.6438 161.801 107.049 163.126 124.466C163.752 132.797 163.347 141.451 161.801 149.639Z" fill="var(--fill-0, white)" fill-opacity="0.12"/>
<path id="Vector_6" fill-rule="evenodd" clip-rule="evenodd" d="M1380.72 214.491C1349.6 161.524 1318.49 108.521 1287.26 55.6251C1286.6 54.5119 1284.54 53.5782 1283.14 53.5423C1273.12 53.3628 1263.1 53.5423 1253.13 53.3628C1250.11 53.2909 1248.49 54.2605 1247.01 56.8101C1220.43 102.775 1193.73 148.704 1167.07 194.633C1162.98 201.672 1158.93 208.674 1154.51 216.323C1166.85 216.323 1178.41 216.395 1190.01 216.215C1191.12 216.215 1192.62 214.671 1193.25 213.486C1198.85 203.467 1204.37 193.376 1209.67 183.214C1210.93 180.808 1212.44 180.054 1215.12 180.054C1248.71 180.126 1282.25 180.126 1315.8 180.054C1318.34 180.054 1319.78 180.808 1320.95 182.998C1326.55 193.197 1332.22 203.323 1338.04 213.378C1338.78 214.635 1340.51 216.143 1341.76 216.179C1354.83 216.395 1367.94 216.323 1381.53 216.323C1381.05 215.246 1380.9 214.851 1380.72 214.491ZM1227.57 151.649C1240.49 128.63 1253.13 106.079 1266.16 82.8809C1278.83 106.115 1291.09 128.702 1303.57 151.649H1227.57Z" fill="var(--fill-0, white)" fill-opacity="0.12"/>
<path id="Vector_7" fill-rule="evenodd" clip-rule="evenodd" d="M978.095 131.143V96.5975C980.083 96.382 981.924 95.987 983.766 95.9511C1003.32 95.8075 1022.87 95.6997 1042.46 95.6638C1052.4 95.6638 1059.14 100.799 1061.61 110.064C1064.11 119.4 1056.56 130.03 1046.66 130.928C1043.35 131.215 1039.96 131.107 1036.61 131.107C1018.82 131.107 1001 131.107 983.213 131.107H978.132L978.095 131.143Z" fill="var(--fill-0, white)" fill-opacity="0.12"/>
</g>
</svg>
