<svg preserveAspectRatio="none" width="100%" height="100%" overflow="visible" style="display: block;" viewBox="0 0 149.996 30.004" fill="currentColor" xmlns="http://www.w3.org/2000/svg">
<g id="Group">
<path id="Vector" fill-rule="evenodd" clip-rule="evenodd" d="M62.1325 5.97281V8.88726H47.7078V13.129H56.0836V16.0914H47.6958V20.8009H62.3044V24.0472H43.5899V5.97281H62.1325Z" />
<path id="Vector_2" fill-rule="evenodd" clip-rule="evenodd" d="M34.0108 24.0672H30.0128V5.97681H34.0108V24.0672Z" />
<path id="Vector_3" fill-rule="evenodd" clip-rule="evenodd" d="M110.312 0C101.928 0.147921 95.2997 6.63646 95.2917 15.008C95.2877 23.3875 101.932 30.008 110.34 30.004C118.728 29.996 125.356 23.3915 125.36 15.028C125.364 6.64845 118.72 0.135928 110.312 0.00399787V0ZM114.434 22.8158C114.306 22.8158 114.154 22.6799 114.05 22.576C112.403 20.9009 110.764 19.2177 109.109 17.5546C108.961 17.4067 108.713 17.2948 108.505 17.2868C107.757 17.2548 107.006 17.2748 106.202 17.2748C106.194 17.4627 106.178 17.6306 106.178 17.7985C106.178 19.3177 106.166 20.8369 106.186 22.3561C106.19 22.7359 106.082 22.8518 105.698 22.8438C104.711 22.8158 103.719 22.8358 102.696 22.8358V8.04371C102.852 8.03571 103.02 8.01572 103.188 8.01572C106.706 8.01572 110.22 8.03571 113.738 8.00773C115.677 7.99174 117.229 8.65538 118.216 10.3705C119.975 13.4248 117.748 17.2628 114.222 17.2668C114.034 17.2668 113.846 17.2668 113.582 17.3707C115.342 19.1578 117.101 20.9448 118.948 22.8198C117.369 22.8198 115.905 22.8278 114.438 22.8078L114.434 22.8158Z" />
<path id="Vector_4" fill-rule="evenodd" clip-rule="evenodd" d="M92.2892 13.2929C92.0014 11.0421 91.0379 9.1791 89.1628 7.83582C87.2038 6.43657 84.961 5.98881 82.6261 5.95682C79.3798 5.91285 76.1334 5.94483 72.8871 5.94483H70.3604V24.0632C70.4923 24.0712 70.5882 24.0792 70.6842 24.0792C74.2344 24.0792 77.7846 24.1151 81.3348 24.0632C82.7461 24.0432 84.1694 23.9072 85.5646 23.6794C88.3592 23.2236 90.3382 21.6285 91.5376 19.0698C92.4012 17.2268 92.5451 15.2799 92.2932 13.2889L92.2892 13.2929ZM87.9354 16.895C87.4357 18.822 86.1124 19.9134 84.2333 20.3252C83.1219 20.569 81.9745 20.7409 80.839 20.7769C78.7321 20.8489 76.6212 20.7969 74.4623 20.7969V9.03918C74.6222 9.03118 74.7621 9.01919 74.9021 9.01919C77.3648 9.01919 79.8276 8.9992 82.2903 9.02719C83.4417 9.03918 84.5652 9.23108 85.6086 9.77878C86.9959 10.5104 87.7435 11.7058 88.0314 13.197C88.2713 14.4283 88.2473 15.6716 87.9354 16.895Z" />
<path id="Vector_5" fill-rule="evenodd" clip-rule="evenodd" d="M21.8649 13.133C21.4931 10.4584 20.1338 8.46349 17.735 7.20416C16.0559 6.32063 14.2288 5.97681 12.3577 5.96082C8.39175 5.92484 4.42976 5.94883 0.463765 5.94883H0V24.0832H0.559716C3.93401 24.0832 7.3083 24.1231 10.6786 24.0672C12.1858 24.0432 13.7051 23.9192 15.1923 23.6794C17.751 23.2676 19.662 21.8523 20.8934 19.5656C21.9849 17.5426 22.1728 15.3718 21.8609 13.129L21.8649 13.133ZM17.5671 16.6591C17.1833 18.714 15.812 19.9054 13.829 20.3212C12.5297 20.593 11.1903 20.7409 9.863 20.8009C8.05992 20.8809 6.25283 20.8169 4.44575 20.8249C4.16989 20.8249 4.00597 20.8009 4.00597 20.4451C4.01796 16.7191 4.01397 12.9971 4.01397 9.27106C4.01397 9.21109 4.02996 9.14712 4.04995 9.01919H5.23335C7.44023 9.01919 9.64711 8.97521 11.85 9.03918C12.7575 9.06716 13.6931 9.22708 14.5526 9.51492C16.6316 10.2026 17.5671 11.9176 17.711 13.8566C17.779 14.7841 17.735 15.7476 17.5671 16.6591Z" />
<path id="Vector_6" fill-rule="evenodd" clip-rule="evenodd" d="M149.908 23.8793C146.53 17.9824 143.151 12.0816 139.761 6.1927C139.689 6.06876 139.465 5.96482 139.313 5.96082C138.226 5.94083 137.139 5.96082 136.055 5.94083C135.727 5.93284 135.551 6.04078 135.391 6.32463C132.505 11.4419 129.606 16.5552 126.712 21.6684C126.268 22.452 125.828 23.2316 125.348 24.0832C126.688 24.0832 127.943 24.0912 129.203 24.0712C129.322 24.0712 129.486 23.8993 129.554 23.7673C130.162 22.6519 130.762 21.5285 131.337 20.3971C131.473 20.1293 131.637 20.0453 131.929 20.0453C135.575 20.0533 139.217 20.0533 142.86 20.0453C143.135 20.0453 143.291 20.1293 143.419 20.3731C144.027 21.5085 144.643 22.6359 145.274 23.7553C145.354 23.8953 145.542 24.0632 145.678 24.0672C147.097 24.0912 148.521 24.0832 149.996 24.0832C149.944 23.9632 149.928 23.9192 149.908 23.8793ZM133.28 16.883C134.684 14.3204 136.055 11.8097 137.47 9.22708C138.846 11.8137 140.177 14.3284 141.532 16.883H133.28Z" />
<path id="Vector_7" fill-rule="evenodd" clip-rule="evenodd" d="M106.194 14.6002V10.7543C106.41 10.7303 106.61 10.6863 106.81 10.6823C108.933 10.6663 111.056 10.6543 113.183 10.6503C114.262 10.6503 114.994 11.222 115.262 12.2535C115.533 13.2929 114.714 14.4763 113.638 14.5762C113.279 14.6082 112.911 14.5962 112.547 14.5962C110.616 14.5962 108.681 14.5962 106.75 14.5962H106.198L106.194 14.6002Z" />
</g>
</svg>
