<svg preserveAspectRatio="none" width="100%" height="100%" overflow="visible" style="display: block;" viewBox="0 0 48 48" fill="none" xmlns="http://www.w3.org/2000/svg">
<g id="wpf:mute">
<path id="Vector" d="M6.46154 3.69231C6.12369 3.75345 5.80958 3.9076 5.55451 4.13743C5.29944 4.36725 5.11351 4.66366 5.01762 4.99334C4.92173 5.32301 4.91967 5.6729 5.01168 6.00368C5.10369 6.33446 5.28611 6.63303 5.53846 6.86585L42.4615 43.7889C42.6245 43.9899 42.8278 44.1543 43.0583 44.2716C43.2889 44.389 43.5415 44.4565 43.7998 44.4699C44.0582 44.4833 44.3164 44.4423 44.5579 44.3495C44.7994 44.2567 45.0186 44.1142 45.2015 43.9312C45.3843 43.7482 45.5267 43.5289 45.6193 43.2874C45.712 43.0458 45.7528 42.7875 45.7392 42.5292C45.7256 42.2709 45.6579 42.0183 45.5404 41.7878C45.4229 41.5574 45.2583 41.3542 45.0572 41.1914L31.3846 27.5206V6.11446C31.3846 3.77908 29.3446 3.19385 27.7495 4.78892L18.1145 14.2505L8.136 4.26831C7.94544 4.06534 7.71145 3.9081 7.45153 3.80835C7.19161 3.7086 6.9125 3.66893 6.63508 3.69231C6.57726 3.68959 6.51935 3.68959 6.46154 3.69231ZM9.23077 16.7317C8.21354 16.7317 7.38462 17.5588 7.38462 18.5778V29.6548C7.38462 30.6702 8.21354 31.5009 9.23077 31.5009H15.5778L27.6923 43.3255C29.5385 45.1717 31.3846 44.2265 31.3846 41.7102V36.9785L11.1342 16.7317H9.23077Z" fill="var(--fill-0, white)"/>
</g>
</svg>
